<svg xmlns="http://www.w3.org/2000/svg" version="1.0" preserveAspectRatio="xMidYMid meet" viewBox="4.2 6.22 331.65 334.78">

<g transform="translate(0.000000,346.000000) scale(0.100000,-0.100000)" fill="#1fb0f2" stroke="none">
<path d="M1300 3390 c-30 -6 -96 -30 -146 -54 -312 -154 -491 -608 -471 -1196 30 -866 474 -1749 1012 -2015 118 -58 190 -75 311 -75 168 1 292 57 418 191 87 92 179 256 160 286 -6 10 -22 18 -35 18 -19 0 -32 -15 -69 -83 -86 -158 -185 -255 -308 -303 -86 -33 -216 -37 -318 -9 -490 134 -965 911 -1076 1760 -16 127 -16 512 0 615 35 212 101 401 186 529 244 367 636 347 1017 -50 257 -268 456 -655 568 -1102 21 -86 44 -191 51 -232 7 -41 17 -81 22 -87 14 -18 43 -16 59 3 20 24 -47 342 -115 548 -270 809 -800 1335 -1266 1256z" fill="#1fb0f2"/>
<path d="M2265 3085 c-108 -17 -135 -28 -135 -54 0 -30 13 -32 92 -14 49 11 119 16 213 16 125 1 149 -2 220 -26 228 -75 347 -244 362 -512 18 -336 -159 -755 -494 -1173 -85 -105 -96 -128 -66 -139 20 -8 71 46 181 191 210 277 360 585 418 857 22 104 25 328 5 409 -53 220 -210 379 -426 435 -87 23 -262 27 -370 10z" fill="#1fb0f2"/>
<path d="M1849 2957 c-85 -38 -207 -103 -286 -153 -36 -23 -53 -40 -53 -54 0 -34 25 -33 81 3 83 52 237 133 312 163 57 22 68 30 65 48 -5 32 -34 30 -119 -7z" fill="#1fb0f2"/>
<path d="M1010 2714 c-8 -1 -46 -6 -83 -9 -46 -5 -70 -11 -74 -21 -3 -8 -3 -17 0 -20 3 -3 81 0 174 6 360 25 753 -32 1129 -165 124 -44 154 -46 141 -12 -6 15 -253 101 -407 141 -113 29 -304 61 -449 76 -93 9 -394 12 -431 4z" fill="#1fb0f2"/>
<path d="M555 2622 c-295 -117 -448 -266 -500 -487 -40 -168 13 -360 152 -555 34 -47 88 -111 121 -143 l59 -58 -24 -92 c-108 -413 2 -744 291 -881 81 -38 181 -56 314 -55 205 0 356 39 314 81 -9 9 -32 8 -104 -8 -124 -25 -318 -26 -402 0 -189 57 -305 166 -364 344 -23 69 -26 92 -26 222 0 115 5 164 23 240 12 52 24 96 27 99 2 2 17 -7 32 -21 75 -70 339 -238 374 -238 33 0 20 35 -19 54 -80 38 -373 244 -373 261 0 20 116 269 166 356 35 63 63 121 62 129 -2 8 -12 16 -23 18 -16 2 -31 -16 -72 -85 -66 -113 -124 -231 -153 -310 -12 -35 -26 -63 -31 -63 -12 0 -147 158 -187 219 -48 75 -98 186 -111 249 -17 83 -14 201 9 273 52 168 224 322 451 403 72 26 94 38 94 52 0 28 -22 27 -100 -4z" fill="#1fb0f2"/>
<path d="M1245 2574 c-182 -153 -455 -443 -455 -483 0 -27 30 -35 50 -14 9 10 56 64 104 120 101 118 250 263 354 343 39 30 73 61 76 69 7 15 -11 41 -28 41 -6 0 -51 -34 -101 -76z" fill="#1fb0f2"/>
<path d="M1814 2469 c-10 -16 8 -29 49 -36 32 -5 37 -3 37 15 0 28 -70 46 -86 21z" fill="#1fb0f2"/>
<path d="M1430 2435 c-10 -12 -10 -19 -2 -27 15 -15 65 7 60 25 -7 18 -43 20 -58 2z" fill="#1fb0f2"/>
<path d="M2007 2413 c-16 -15 -4 -30 46 -55 195 -103 339 -321 364 -553 6 -55 12 -70 26 -73 38 -7 11 186 -43 312 -51 120 -155 241 -275 321 -79 53 -104 63 -118 48z" fill="#1fb0f2"/>
<path d="M1535 2379 c-143 -41 -259 -116 -346 -224 -156 -194 -189 -473 -83 -705 33 -71 104 -163 171 -221 155 -134 386 -190 579 -141 104 26 176 57 231 99 40 31 45 32 60 17 15 -14 14 -18 -13 -39 -45 -37 -183 -102 -250 -119 -34 -9 -88 -16 -120 -16 -68 0 -90 -10 -80 -35 6 -16 16 -17 85 -11 135 11 274 60 372 132 26 19 50 34 54 34 4 0 36 -28 71 -63 60 -58 64 -65 64 -107 0 -25 7 -55 15 -67 8 -12 12 -28 9 -37 -4 -10 1 -18 11 -22 12 -5 35 11 81 57 66 66 75 83 48 93 -11 4 -29 -8 -56 -36 -37 -41 -39 -42 -53 -24 -22 29 -18 61 11 95 21 25 33 31 65 31 26 0 46 -7 59 -20 25 -25 42 -25 64 -1 21 23 14 41 -17 41 -12 1 -33 7 -47 15 -14 8 -41 14 -61 15 -32 0 -46 10 -130 95 -52 52 -94 99 -94 103 0 4 16 32 36 62 78 118 117 288 100 427 -35 280 -222 498 -493 573 -97 27 -246 26 -343 -1z m299 -129 c108 -27 170 -63 251 -145 164 -164 200 -388 98 -604 -133 -279 -498 -382 -759 -213 -155 101 -244 262 -244 447 0 173 72 321 208 424 132 101 286 132 446 91z" fill="#1fb0f2"/>
<path d="M1585 2166 c-107 -34 -209 -108 -203 -149 5 -34 51 -35 90 -2 71 60 125 79 241 83 92 4 109 7 117 23 8 14 6 23 -10 39 -17 17 -32 20 -107 19 -49 0 -106 -6 -128 -13z" fill="#1fb0f2"/>
<path d="M1936 2084 c-23 -22 -20 -40 12 -69 31 -29 69 -30 86 -2 9 15 5 24 -26 53 -43 38 -50 40 -72 18z" fill="#1fb0f2"/>
<path d="M1592 1364 c-20 -15 -11 -46 18 -62 33 -17 201 -12 224 8 10 7 16 24 14 39 l-3 26 -119 0 c-68 0 -125 -5 -134 -11z" fill="#1fb0f2"/>
<path d="M1274 2356 c-131 -88 -252 -262 -296 -423 -43 -161 -23 -385 48 -525 100 -200 308 -369 497 -403 32 -6 37 -5 37 12 0 14 -17 24 -71 43 -193 65 -348 205 -430 387 -43 97 -59 173 -59 292 0 245 112 452 327 600 20 13 30 27 26 36 -8 22 -23 19 -79 -19z" fill="#1fb0f2"/>
<path d="M2535 2370 c-10 -16 -2 -23 92 -80 48 -29 132 -84 186 -122 91 -65 117 -75 117 -44 0 23 -169 144 -304 218 -74 41 -82 43 -91 28z" fill="#1fb0f2"/>
<path d="M3030 2002 c0 -10 12 -29 26 -43 88 -81 210 -284 239 -396 34 -130 13 -292 -51 -396 -58 -94 -196 -209 -312 -261 -42 -19 -54 -42 -27 -52 8 -3 51 14 96 38 212 112 339 287 356 489 15 177 -79 402 -243 578 -57 62 -84 76 -84 43z" fill="#1fb0f2"/>
<path d="M2646 1334 c-3 -9 -6 -58 -6 -109 0 -109 4 -125 34 -125 39 0 46 18 46 125 0 65 -4 105 -12 113 -17 17 -55 15 -62 -4z" fill="#1fb0f2"/>
<path d="M2600 1020 c-24 -24 -25 -39 -4 -47 21 -8 59 30 51 51 -8 21 -23 20 -47 -4z" fill="#1fb0f2"/>
<path d="M2135 929 c-165 -142 -341 -258 -549 -360 -77 -38 -144 -73 -150 -79 -7 -7 -5 -15 5 -26 14 -14 24 -12 95 16 137 55 337 172 499 294 151 113 224 180 225 204 0 40 -41 24 -125 -49z" fill="#1fb0f2"/>
<path d="M2657 972 c-23 -25 -22 -52 2 -52 27 0 54 39 39 57 -14 17 -22 16 -41 -5z" fill="#1fb0f2"/>
<path d="M1114 959 c-10 -17 3 -24 121 -66 128 -47 260 -82 436 -118 146 -29 179 -31 179 -11 0 22 -13 27 -134 47 -133 23 -287 64 -451 119 -130 43 -141 45 -151 29z" fill="#1fb0f2"/>
<path d="M2467 892 c-58 -58 -72 -92 -39 -92 26 0 136 115 129 134 -11 27 -31 18 -90 -42z" fill="#1fb0f2"/>
<path d="M2705 910 c-17 -18 -15 -50 3 -50 16 0 54 48 47 59 -10 17 -30 13 -50 -9z" fill="#1fb0f2"/>
<path d="M2521 836 c-43 -44 -62 -69 -58 -80 11 -28 33 -17 95 48 42 43 60 69 56 80 -10 27 -27 18 -93 -48z" fill="#1fb0f2"/>
<path d="M2767 862 c-20 -22 -22 -52 -4 -52 19 0 47 33 47 53 0 22 -23 22 -43 -1z" fill="#1fb0f2"/>
<path d="M2571 776 c-59 -62 -69 -86 -35 -86 18 0 136 120 131 134 -9 27 -38 12 -96 -48z" fill="#1fb0f2"/>
<path d="M2812 808 c-19 -19 -15 -48 6 -48 23 0 56 35 47 49 -8 15 -38 14 -53 -1z" fill="#1fb0f2"/>
<path d="M2632 727 c-62 -63 -72 -80 -51 -93 14 -9 139 115 139 138 0 32 -24 19 -88 -45z" fill="#1fb0f2"/>
<path d="M2063 754 c-11 -30 13 -35 163 -32 146 3 149 3 152 26 l3 22 -156 0 c-132 0 -157 -2 -162 -16z" fill="#1fb0f2"/>
<path d="M2866 748 c-12 -16 -13 -25 -4 -35 9 -11 14 -11 32 0 12 8 22 24 24 36 5 29 -32 28 -52 -1z" fill="#1fb0f2"/>
<path d="M2677 670 c-57 -57 -67 -82 -36 -88 19 -3 143 124 134 138 -13 22 -42 7 -98 -50z" fill="#1fb0f2"/>
<path d="M2932 704 c-27 -19 -29 -54 -4 -54 23 0 42 19 42 41 0 26 -14 30 -38 13z" fill="#1fb0f2"/>
<path d="M2732 616 c-34 -35 -62 -66 -62 -69 0 -2 7 -10 15 -17 12 -10 26 -1 80 51 65 62 82 99 47 99 -11 0 -47 -29 -80 -64z" fill="#1fb0f2"/>
<path d="M2976 641 c-19 -20 -14 -41 8 -41 18 0 49 37 41 49 -10 17 -30 13 -49 -8z" fill="#1fb0f2"/>
<path d="M2795 569 c-62 -59 -76 -87 -48 -96 15 -5 104 76 123 112 10 19 11 28 2 37 -8 8 -28 -6 -77 -53z" fill="#1fb0f2"/>
<path d="M3032 590 c-22 -20 -20 -50 3 -50 19 0 48 38 42 55 -8 20 -19 19 -45 -5z" fill="#1fb0f2"/>
<path d="M2841 506 c-58 -59 -70 -86 -38 -86 16 0 137 122 137 138 0 28 -40 8 -99 -52z" fill="#1fb0f2"/>
<path d="M3091 541 c-12 -12 -21 -28 -21 -36 0 -22 34 -18 55 5 17 19 17 22 3 36 -14 15 -18 14 -37 -5z" fill="#1fb0f2"/>
<path d="M2901 460 c-62 -61 -76 -90 -43 -90 26 0 136 115 129 134 -10 26 -22 20 -86 -44z" fill="#1fb0f2"/>
<path d="M3135 480 c-17 -19 -15 -50 4 -50 20 0 54 37 48 53 -9 23 -30 21 -52 -3z" fill="#1fb0f2"/>
<path d="M2954 408 c-65 -62 -76 -84 -48 -95 11 -4 36 15 80 58 66 66 75 83 48 93 -11 4 -37 -14 -80 -56z" fill="#1fb0f2"/>
<path d="M3197 432 c-22 -24 -21 -38 3 -62 22 -22 26 -70 9 -102 -16 -29 -72 -50 -104 -38 -14 5 -25 13 -25 18 0 4 18 25 39 46 37 36 45 66 17 66 -6 0 -40 -29 -75 -64 -46 -46 -62 -69 -57 -81 4 -10 12 -15 22 -11 8 3 29 -1 46 -10 72 -37 165 6 190 88 9 31 8 45 -7 83 -9 26 -14 49 -11 52 6 7 -12 33 -24 33 -4 0 -14 -8 -23 -18z" fill="#1fb0f2"/>
<path d="M3007 352 c-58 -59 -72 -92 -39 -92 23 0 135 115 129 133 -9 27 -35 15 -90 -41z" fill="#1fb0f2"/>
</g>
</svg>